<svg xmlns="http://www.w3.org/2000/svg" width="672.13" height="669.16"><defs><linearGradient id="a" x1="-1211.56" x2="-1232.06" y1="1173.42" y2="1233.96" gradientTransform="translate(2123 -1324.9) scale(1.5625)" gradientUnits="userSpaceOnUse"><stop offset="0" stop-color="#114a8b"/><stop offset="1" stop-color="#0669bc"/></linearGradient><linearGradient id="b" x1="-1205.16" x2="-1209.9" y1="1201.63" y2="1203.24" gradientTransform="translate(2123 -1324.9) scale(1.5625)" gradientUnits="userSpaceOnUse"><stop offset="0" stop-opacity=".3"/><stop offset=".07" stop-opacity=".2"/><stop offset=".32" stop-opacity=".1"/><stop offset=".62" stop-opacity=".05"/><stop offset="1" stop-opacity="0"/></linearGradient><linearGradient id="c" x1="-1207.62" x2="-1185.12" y1="1171.6" y2="1231.53" gradientTransform="translate(2123 -1324.9) scale(1.5625)" gradientUnits="userSpaceOnUse"><stop offset="0" stop-color="#3ccbf4"/><stop offset="1" stop-color="#2892df"/></linearGradient></defs><g fill="#f2f2f2"><path d="M244.3 88.93c-1.66-2.8-8.86.2-10.18-2.34-1.32-2.54 5.37-6.4 9.19-15.23.68-1.6 5.03-11.62 1.81-14.72-6.09-5.86-33.96 18.35-43.71 10.42-2.14-1.73-3.64-5.2-10.11-10.84-2.58-2.24-4.14-3.26-5.65-2.88-2.14.53-2.3 3.4-4.6 9.03-3.44 8.45-5.48 7.94-7.48 14.67-1.5 5-1.15 7.91-2.9 8.48-2.48.8-4.76-4.5-7.9-4.03-3.21.49-5.15 6.66-5.76 11.29-1.15 8.68 2.04 14.4 3.8 20.43 1.92 6.54 3.06 16.5-1.37 30.59l-43.88 123.64c9.68-25.37 37.74-94.92 49.52-120.77 3.4-7.46 7.16-15.03 14.88-18.01 7.43-2.88 17.63-1.16 30.63-4.3 1.52-.36 5.73-1.43 6.26-3.91.44-2.05-2.04-3.2-1.66-5.11.52-2.58 5.39-2.61 11.38-5.58 4.23-2.1 6.86-4.59 9.12-6.73.68-.64 10.83-10.36 8.61-14.1Z"/><path d="M71.65 154.02c-1.86.01-2.46 4.4-4.09 4.32-1.62-.08-1.6-4.48-4.82-8.9-.58-.8-4.25-5.82-6.7-5.14-4.64 1.3-.8 21.96-7.5 24.47-1.47.54-3.6.28-8.24 1.83-1.84.62-2.79 1.1-3.04 1.94-.36 1.2 1 2.11 3.1 4.86 3.15 4.13 2.32 4.98 5.05 7.91 2.02 2.17 3.55 2.85 3.32 3.87-.32 1.45-3.58 1.04-4.26 2.72-.68 1.7 1.79 4.44 3.88 6.08 3.93 3.06 7.66 3.15 11.13 4.02 3.76.95 8.98 3.26 14.61 9.5l48.02 57.22c-9.65-12.08-35.7-45.91-44.98-59.16-2.68-3.82-5.3-7.85-4.55-12.5.73-4.47 4.52-8.98 6.73-16.27.26-.85.95-3.23-.11-4.2-.88-.8-2.16.08-2.99-.66-1.11-1 .28-3.4.55-7.2.19-2.67-.28-4.68-.67-6.41-.12-.52-1.97-8.3-4.44-8.3ZM108.68 162.34l-1.11-9.99.5-.75c2.37-3.5 3.58-6.92 3.6-10.17 0-.51-.03-1.03-.06-1.55-.1-2.09-.21-4.67 1.14-7.7.75-1.67 2.88-5.57 6.08-5.09.86.12 1.5.52 2 .98l.23-.36c1-1.51 1.78-2.16 2.54-2.8.58-.47 1.19-.97 2.13-2.15.42-.51.74-.96 1.01-1.35.83-1.15 1.9-2.52 3.81-2.5 2.04.1 3.1 1.78 3.8 2.9a24.06 24.06 0 0 1 2.22 4.36c.14.35.3.74.37.86.66.96 5.99.06 8-.26 4.5-.76 8.4-1.4 10.02 1.44 1.15 2.03.3 4.72-2.62 8.2a16.3 16.3 0 0 1-2.74 2.56 3.34 3.34 0 0 1 1.6 2.1c.61 2.42-1.47 4.84-6.17 7.21-1.17.6-2.75 1.39-4.95 1.77-1.04.18-1.98.22-2.78.25-.01.46-.12.96-.4 1.47-.83 1.52-2.55 2.25-5.14 2.07-2.86-.15-5.2-.7-7.28-1.17-1.81-.41-3.37-.76-4.6-.68-2.27.18-4.02 2-6.07 4.35l-5.13 6ZM113.87 102.9l-9.37 3.6-.86-.3c-3.99-1.4-7.6-1.7-10.74-.88-.5.13-1 .28-1.5.44-1.99.62-4.46 1.4-7.72.85-1.82-.3-6.13-1.37-6.47-4.59-.1-.86.11-1.59.44-2.19l-.4-.12a10.98 10.98 0 0 1-3.36-1.75c-.61-.45-1.24-.9-2.62-1.52-.6-.27-1.13-.47-1.56-.63-1.33-.51-2.93-1.2-3.39-3.05-.42-2 .93-3.45 1.83-4.42a24.06 24.06 0 0 1 3.67-3.25c.3-.22.64-.47.73-.57.77-.88-1.46-5.81-2.28-7.67-1.87-4.17-3.5-7.78-1.15-10.06 1.68-1.63 4.5-1.48 8.6.46a16.3 16.3 0 0 1 3.17 2c.23-.8.7-1.58 1.62-2.1 2.19-1.2 5.06.2 8.55 4.15.87.98 2.04 2.3 2.96 4.34.44.96.72 1.86.94 2.62.46-.1.97-.12 1.54.02 1.68.42 2.81 1.9 3.3 4.45.58 2.8.65 5.21.72 7.34.05 1.85.11 3.45.5 4.62.75 2.14 2.95 3.38 5.76 4.77l7.1 3.43ZM108.68 73.48l-1.11-9.98.5-.76c2.37-3.5 3.58-6.92 3.6-10.16 0-.52-.03-1.03-.06-1.56-.1-2.08-.21-4.67 1.14-7.69.75-1.68 2.88-5.57 6.08-5.1.86.13 1.5.52 2 .99l.23-.36c1-1.52 1.78-2.17 2.54-2.8.58-.48 1.19-.97 2.13-2.15.42-.52.74-.97 1.01-1.35.83-1.15 1.9-2.53 3.81-2.5 2.04.1 3.1 1.78 3.8 2.89a24.06 24.06 0 0 1 2.22 4.37c.14.34.3.73.37.86.66.96 5.99.06 8-.27 4.5-.75 8.4-1.4 10.02 1.44 1.15 2.04.3 4.73-2.62 8.21a16.3 16.3 0 0 1-2.74 2.56 3.34 3.34 0 0 1 1.6 2.1c.61 2.41-1.47 4.84-6.17 7.21-1.17.6-2.75 1.38-4.95 1.76-1.04.18-1.98.23-2.78.25-.01.46-.12.96-.4 1.48-.83 1.52-2.55 2.24-5.14 2.07-2.86-.15-5.2-.7-7.28-1.17-1.81-.42-3.37-.77-4.6-.69-2.27.19-4.02 2-6.07 4.36l-5.13 6Z"/><path d="m118.9 267.27-2.1-1.3-.5-2.42.5 2.41-2.43.28c-.04-.22-.17-.75-.37-1.56-1.1-4.46-4.42-18.05-7.2-39.44a402.15 402.15 0 0 1-3.26-45.64c-.23-15.38.5-27.02 1.08-36.38.44-7.06.98-13.78 1.5-20.33 1.4-17.49 2.72-34 1.74-52.3-.22-4.08-.67-12.58-5.64-21.62a45.92 45.92 0 0 0-11.8-13.84l3.08-3.86a50.94 50.94 0 0 1 13.05 15.33c5.5 10.02 6 19.28 6.24 23.73 1 18.62-.33 35.3-1.75 52.95-.52 6.53-1.05 13.22-1.5 20.25-.57 9.27-1.29 20.8-1.07 35.99.23 15.17 1.31 30.33 3.22 45.08 2.75 21.13 6.03 34.5 7.1 38.9.58 2.35.7 2.84.1 3.77Z"/><path d="M81.37 42.98c-.2 0-.4 0-.61-.02-4.2-.23-8.1-2.75-11.57-7.48-1.63-2.23-2.47-4.77-4.13-9.83a61.65 61.65 0 0 1-2.27-10.2c-.5-3.56-.44-5.05.27-6.37a7.53 7.53 0 0 1 3.48-3.17c-.07-.48-.02-.96.19-1.46.84-2.06 3.08-1.79 4.29-1.66.61.08 1.37.18 2.2.14 1.3-.07 2-.45 3.05-1.03 1-.55 2.26-1.24 4.13-1.62 3.67-.77 6.75.27 7.76.61 5.34 1.78 7.97 5.93 11.02 10.74.6.96 2.7 4.47 4.07 9.28 1 3.47.85 5.02.55 6.16-.6 2.36-2.04 3.71-5.68 6.69-3.8 3.12-5.71 4.68-7.35 5.63-3.82 2.2-6.21 3.59-9.4 3.59Z"/></g><path fill="#3f3d56" d="M286.7 663.48c0 .66.54 1.19 1.2 1.19h247.29a1.19 1.19 0 0 0 .87-2h-89.72c-1.91 0-3.78-.13-5.62-.38H287.9c-.66 0-1.2.53-1.2 1.19Z"/><path fill="#fff" d="M167.23 452.94H304.9a42.23 42.23 0 0 1 42.23 42.23v110.44a42.23 42.23 0 0 1-42.23 42.23H167.23A42.23 42.23 0 0 1 125 605.6V495.17a42.23 42.23 0 0 1 42.23-42.23Z"/><path fill="#3f3d56" d="M124 605.6V495.18a43.28 43.28 0 0 1 43.23-43.23H304.9a43.28 43.28 0 0 1 43.23 43.23v110.44a43.28 43.28 0 0 1-43.23 43.23H167.23A43.28 43.28 0 0 1 124 605.6Zm43.23-151.66A41.28 41.28 0 0 0 126 495.17v110.44a41.28 41.28 0 0 0 41.23 41.23H304.9a41.28 41.28 0 0 0 41.23-41.23V495.17a41.28 41.28 0 0 0-41.23-41.23H167.23Z"/><path fill="url(#a)" d="M218.7 501.3h30.84l-32.01 94.84a4.92 4.92 0 0 1-4.66 3.34h-24a4.9 4.9 0 0 1-4.65-6.47l29.82-88.37c.68-2 2.55-3.34 4.66-3.34Z"/><path fill="#0078d4" d="M263.5 564.91h-48.89a2.26 2.26 0 0 0-1.54 3.92l31.42 29.33a4.94 4.94 0 0 0 3.37 1.32h27.69l-12.04-34.57Z"/><path fill="url(#b)" d="M218.7 501.3a4.88 4.88 0 0 0-4.67 3.4l-29.77 88.23a4.9 4.9 0 0 0 4.62 6.55h24.62a5.26 5.26 0 0 0 4.04-3.43l5.94-17.5 21.2 19.78c.9.74 2.01 1.15 3.16 1.15h27.59l-12.1-34.57-35.27.01 21.59-63.62H218.7Z"/><path fill="url(#c)" d="M258.09 504.64a4.9 4.9 0 0 0-4.66-3.34h-34.36c2.1 0 3.98 1.34 4.65 3.34L253.54 593a4.91 4.91 0 0 1-4.65 6.48h34.37a4.91 4.91 0 0 0 4.65-6.48l-29.82-88.37Z"/><path fill="#fff" d="M43.23 206.94H180.9a42.23 42.23 0 0 1 42.23 42.23v110.44a42.23 42.23 0 0 1-42.23 42.23H43.23A42.23 42.23 0 0 1 1 359.6V249.17a42.23 42.23 0 0 1 42.23-42.23Z"/><path fill="#3f3d56" d="M0 359.6V249.18a43.28 43.28 0 0 1 43.23-43.23H180.9a43.28 43.28 0 0 1 43.23 43.23v110.44a43.28 43.28 0 0 1-43.23 43.23H43.23A43.28 43.28 0 0 1 0 359.6Zm43.23-151.66A41.28 41.28 0 0 0 2 249.17v110.44a41.28 41.28 0 0 0 41.23 41.23H180.9a41.28 41.28 0 0 0 41.23-41.23V249.17a41.28 41.28 0 0 0-41.23-41.23H43.23Z"/><path fill="#252f3e" d="M84.57 306.08c0 1.55.17 2.8.46 3.73.34.92.75 1.93 1.34 3.02.21.33.3.67.3.96 0 .42-.26.84-.8 1.26l-2.64 1.76c-.38.25-.76.38-1.1.38-.41 0-.83-.21-1.25-.59-.59-.63-1.09-1.3-1.5-1.97-.43-.71-.85-1.5-1.3-2.47a15.48 15.48 0 0 1-12.33 5.78c-3.52 0-6.33-1-8.38-3.02s-3.1-4.69-3.1-8.04c0-3.57 1.25-6.46 3.81-8.64s5.95-3.27 10.27-3.27c1.42 0 2.9.13 4.44.34 1.55.2 3.15.54 4.82.92v-3.06c0-3.18-.67-5.4-1.97-6.7-1.34-1.3-3.6-1.93-6.83-1.93-1.47 0-2.98.17-4.53.54s-3.06.84-4.52 1.43c-.67.3-1.18.46-1.47.54s-.5.13-.67.13c-.59 0-.88-.42-.88-1.3v-2.05c0-.68.08-1.18.3-1.47s.58-.59 1.17-.88a24.13 24.13 0 0 1 5.28-1.89c2.05-.54 4.23-.8 6.54-.8 4.98 0 8.63 1.14 10.98 3.4 2.3 2.26 3.48 5.7 3.48 10.31v13.58h.08Zm-17.02 6.37c1.39 0 2.81-.25 4.32-.75a9.34 9.34 0 0 0 3.98-2.69c.67-.8 1.17-1.67 1.43-2.68s.42-2.22.42-3.64v-1.76a31.12 31.12 0 0 0-7.8-.96c-2.8 0-4.86.54-6.25 1.67-1.38 1.13-2.05 2.72-2.05 4.82 0 1.97.5 3.43 1.55 4.44 1 1.05 2.47 1.55 4.4 1.55Zm33.66 4.53c-.76 0-1.26-.13-1.6-.42-.33-.25-.62-.84-.87-1.64l-9.85-32.4a7.34 7.34 0 0 1-.38-1.67c0-.67.33-1.05 1-1.05h4.11c.8 0 1.34.13 1.64.42.33.25.58.84.83 1.64l7.05 27.74 6.53-27.74c.21-.84.47-1.39.8-1.64s.92-.42 1.68-.42h3.35c.8 0 1.34.13 1.68.42.33.25.62.84.8 1.64l6.61 28.08 7.26-28.08a3.6 3.6 0 0 1 .83-1.64c.34-.25.88-.42 1.64-.42h3.9c.67 0 1.04.34 1.04 1.05 0 .2-.04.42-.08.67-.04.25-.13.59-.3 1.05l-10.1 32.4c-.25.83-.54 1.38-.87 1.63s-.88.42-1.6.42h-3.6c-.8 0-1.34-.13-1.68-.42s-.63-.84-.8-1.68l-6.5-27.03-6.44 27c-.21.83-.47 1.37-.8 1.67-.34.3-.92.42-1.68.42h-3.6Zm53.85 1.13c-2.18 0-4.35-.25-6.45-.76-2.1-.5-3.73-1.04-4.82-1.67-.67-.38-1.13-.8-1.3-1.18-.17-.37-.25-.8-.25-1.17v-2.14c0-.88.33-1.3.96-1.3.25 0 .5.05.76.13s.63.25 1.05.42a22.8 22.8 0 0 0 4.6 1.47c1.68.33 3.32.5 5 .5 2.63 0 4.69-.46 6.11-1.38a4.51 4.51 0 0 0 2.18-3.99c0-1.17-.38-2.13-1.13-2.93-.75-.8-2.18-1.5-4.23-2.18l-6.08-1.88c-3.06-.97-5.32-2.4-6.7-4.28a9.99 9.99 0 0 1-.97-10.73 10.78 10.78 0 0 1 3.02-3.44c1.26-.96 2.68-1.67 4.36-2.18s3.43-.7 5.28-.7c.92 0 1.88.03 2.8.16.97.13 1.85.3 2.73.46.84.21 1.63.42 2.39.67.75.25 1.34.5 1.76.76.59.33 1 .67 1.26 1.04.25.34.37.8.37 1.39v1.97c0 .88-.33 1.34-.96 1.34-.34 0-.88-.17-1.6-.5a19.17 19.17 0 0 0-8.04-1.64c-2.39 0-4.27.38-5.57 1.17s-1.97 2.02-1.97 3.73c0 1.18.42 2.18 1.25 2.98.84.8 2.4 1.6 4.61 2.3l5.96 1.9c3.01.95 5.2 2.3 6.5 4.01s1.92 3.7 1.92 5.87c0 1.8-.38 3.44-1.09 4.86a11.27 11.27 0 0 1-3.06 3.7 13.51 13.51 0 0 1-4.65 2.34c-1.89.59-3.86.88-6 .88Z"/><g fill="#f90" fill-rule="evenodd"><path d="M162.99 338.48c-13.8 10.18-33.83 15.59-51.05 15.59A92.35 92.35 0 0 1 49.6 330.3c-1.3-1.18-.12-2.77 1.43-1.85 17.77 10.31 39.69 16.56 62.36 16.56 15.3 0 32.1-3.19 47.57-9.73 2.3-1.04 4.28 1.51 2.02 3.19Z"/><path d="M168.73 331.94c-1.76-2.26-11.65-1.09-16.14-.54-1.34.16-1.55-1.01-.33-1.9 7.88-5.52 20.83-3.93 22.34-2.09 1.5 1.89-.42 14.84-7.8 21.04-1.13.97-2.22.46-1.72-.8 1.68-4.14 5.4-13.49 3.65-15.71Z"/></g><path fill="#ffb6b6" d="M428.43 280.5c-1-1-9-22-9-22l-19-1-8.7 20.49 36.7 2.5Z"/><circle cx="401.47" cy="241.59" r="25.58" fill="#ffb6b6"/><path fill="#2f2e41" d="m449.93 418.99 9 30-24 174h-16.25l-8.75-131-10 45 51 65-13 15-73.5-71.5 1.5-110.5 6-17 78 1zM422.92 262.6l-2 .1s-1.79-15.93-2.84-16.88-2.94 1.14-2.94 1.14-8.24-4.6-8.49-9.59-.44-8.99-3.43-8.84-19.78 4.98-23.78 5.17-10.33-6.5-3.63-12.83 12.59-8.63 13.54-9.68 7.2-5.36 12.66-1.63 12.45 3.4 12.45 3.4 13.14 2.35 11.43 8.44c-1.7 6.1 4.88 17.79 2.18 23.93s-5.15 17.27-5.15 17.27Z"/><path fill="#2f2e41" d="m417.93 620 18 2 2 33s-1 16-18 14-12-18-12-18l10-31Z"/><path fill="#2f2e41" d="M441.43 596.5s13-6 15 1l4 14s0 14 1 15 20 27 3 41c0 0-9 1-14-13s-20-28-20-28-2.9-7 2.05-6.5 11.95-11.5 9.95-15.5-1-8-1-8Z"/><path fill="#ffb6b6" d="M276.33 465.85c-4.65-1.96-5.93-9.48-2.85-16.8a19.85 19.85 0 0 1 5.47-7.6l3.6-8.25-.13-.08 10.33-41.19a31.63 31.63 0 0 1 18.1-21.51c5.41-2.3 10.54-2.72 12.03 2.79 2.47 9.14-13.64 38.57-23.36 55.13l-7.57 18.58c.2 3.16-.35 6.33-1.62 9.24-3.08 7.3-9.35 11.64-14 9.69Z"/><path fill="#00b0ff" d="m392.43 274.5 33 1 32 14-5 83s6 19 3 22 0 16.44-2 16.72 0 14.74 0 14.74-28-9.47-52-3.47-32-4-32-4-6-24-6-29V287.25l29-12.76Z"/><path fill="#00b0ff" d="M368.93 287s-14-4-21 6-11 10-11 23c0 0-41 58-39 64l-9.5 15.5 24 13s8.5-8.5 8.5-16.5 24-30 24-30 21-27 22-37 2-38 2-38Z"/><path fill="#fff" d="M492.23 470.94H629.9a42.23 42.23 0 0 1 42.23 42.23v110.44a42.23 42.23 0 0 1-42.23 42.23H492.23A42.23 42.23 0 0 1 450 623.6V513.17a42.23 42.23 0 0 1 42.23-42.23Z"/><path fill="#3f3d56" d="M448 622.6V512.18a43.28 43.28 0 0 1 43.23-43.23H628.9a43.28 43.28 0 0 1 43.23 43.23v110.44a43.28 43.28 0 0 1-43.23 43.23H491.23A43.28 43.28 0 0 1 448 622.6Zm43.23-151.66A41.28 41.28 0 0 0 450 512.17v110.44a41.28 41.28 0 0 0 41.23 41.23H628.9a41.28 41.28 0 0 0 41.23-41.23V512.17a41.28 41.28 0 0 0-41.23-41.23H491.23Z"/><path fill="#ea4335" d="M578.59 548.16h3.4l9.68-9.69.47-4.1a43.52 43.52 0 0 0-70.8 21.23 5.27 5.27 0 0 1 3.4-.2l19.37-3.2s.98-1.63 1.5-1.53a24.15 24.15 0 0 1 33.05-2.51h-.07Z"/><path fill="#4285f4" d="M605.46 555.6a43.62 43.62 0 0 0-13.15-21.2l-13.59 13.59c5.74 4.68 9.01 11.75 8.87 19.16v2.4a12.1 12.1 0 0 1 0 24.2H563.4l-2.4 2.44v14.5l2.4 2.42h24.2a31.46 31.46 0 0 0 17.86-57.51Z"/><path fill="#34a853" d="M539.18 612.97h24.19v-19.36h-24.19c-1.72 0-3.43-.37-5-1.09l-3.39 1.06-9.75 9.68-.85 3.4a31.29 31.29 0 0 0 19 6.31Z"/><path fill="#fbbc05" d="M539.18 550.16a31.46 31.46 0 0 0-18.99 56.4l14.03-14.04a12.1 12.1 0 1 1 16-16l14.03-14.03a31.42 31.42 0 0 0-25.07-12.33Z"/><path fill="#ffb6b6" d="M477.51 488.47c5.04-.26 8.8-6.9 8.38-14.82-.12-3.17-1-6.26-2.57-9.02l-.58-8.97.15-.04 4.26-42.25a31.63 31.63 0 0 0-9.73-26.38c-4.3-4-8.98-6.13-12.25-1.45-5.43 7.75-.26 40.9 3.26 59.78l.81 20.05a19.85 19.85 0 0 0-1.6 9.24c.4 7.92 4.83 14.13 9.87 13.86Z"/><path fill="#00b0ff" d="M451.11 288.8s14.53 1 17.72 12.78 6.95 13.14 2.54 25.37c0 0 18.88 68.47 14.96 73.43l3.68 17.8-26.99 4.1s-5.11-10.89-2.4-18.41-12.39-36.37-12.39-36.37-10.59-32.52-8.14-42.27 11.02-36.42 11.02-36.42Z"/></svg>