<svg xmlns="http://www.w3.org/2000/svg" width="821.76" height="601.73" data-name="Layer 1"><path fill="#ffb6b6" d="m800.34 584-8.14 2.61-13.92-30.17 12.02-3.85L800.34 584z"/><path fill="#2f2e41" d="m804.95 591.23-26.26 8.4-.1-.33a10.73 10.73 0 0 1 6.94-13.5l3.64-5.16 10.1.77 2.3-.73Z"/><path fill="#ffb6b6" d="M723.13 592.12h-8.55l-4.06-32.97h12.62l-.01 32.97z"/><path fill="#2f2e41" d="M725.31 600.41h-27.56v-.35a10.73 10.73 0 0 1 10.73-10.73l5.03-3.82 9.4 3.82h2.4Z"/><path fill="#ffb6b6" d="M682.3 251.32a7.01 7.01 0 0 0 2.11 10.55l-4.1 24.58 11.84-5.25 2.08-22.54a7.05 7.05 0 0 0-11.93-7.34Z"/><path fill="#2f2e41" d="M790.22 455.25s2-25.97-5.07-30.8c-7.07-4.82-65.34-7.25-65.34-7.25l-3.62 4.76s-.33 2.22-5.82 20.33l-2.23 101.05c-.22 9.85-1.94 22.23 2.17 24.76l2 10h11l6.08-16.81a22.1 22.1 0 0 0 3.17-14.16l3.32-14.85a1.8 1.8 0 0 1-.48-.84 8.67 8.67 0 0 1 1.4-6.34 11.18 11.18 0 0 1 .96-1.23l12.16-54.38 16.4 63.61 10.12 22.6c-1 2.37-.34 4.51 1.48 6.5-.68 1.86 2.23 3.16 3.49 5.55l3.9 7.35 11-6 1-6c.67-1.78-1.12-2.96-2.44-6.65 2.46-2.62 2.33-5.17-.04-7.65l-4.16-17.93-.05-8.22-.05-8.79Z"/><circle cx="744.23" cy="281.74" r="19.11" fill="#ffb6b6"/><path fill="#2f2e41" d="m763.45 284.74-.31-.63c-.49-.98-4.53-9.1-5.04-11.18l-5.08.6h-13.25l1.84-2.76-4.86.63a11.16 11.16 0 0 0-4.96 1.87 7.6 7.6 0 0 0-2.25 2.32c-1.73 2.98-4.39 7.84-4.42 7.9l-.25.46-2.2-3.71c-.03-.15-2.77-14.4 6.38-19.24a14.73 14.73 0 0 1 14-8 6.03 6.03 0 0 1 4.1-2.03c2.17-.11 4.42 1.03 6.68 3.4 3 3.16 7.13 7.48 9.62 12.28l.68.98a7.72 7.72 0 0 1 1.38 4.8 16 16 0 0 1-.55 8.16Z"/><path fill="#3f3d56" d="m790.13 318.1-20.77-5.8-10.57-7.85-20.77 3.31-.1.12c-3.63 4.72-9.23 9.4-15.2 9.58a20.87 20.87 0 0 0-4.54.65l-1.99 36.46v32.6a1.91 1.91 0 0 1 1.26 1.4 26.48 26.48 0 0 1-.17 10.02 16.77 16.77 0 0 1-1.09 3.35 8.84 8.84 0 0 1 0 7.7c-1.77 1.69-1.55 3.53 0 5.48v6.84c33.71 28.13 68.87 4.04 68.87 4.04l-1.13-53.54Z"/><path fill="#3f3d56" d="m722.84 323.12-4.66-5.01-25.67-2.9 2.41-39.44-14-9.98L674.6 300c-2.18 1.89-2.59 3.74-1.04 5.57-1.74 3.5-2.19 6.33-1.6 8.64l-1.3 7.09 47.5 33.27Z"/><path fill="#ffb6b6" d="M786.34 452.05a7.01 7.01 0 0 1 3.23-10.26l-1.47-24.88 11.21 6.48-.32 22.63a7.05 7.05 0 0 1-12.65 6.03Z"/><path fill="#3f3d56" d="m782.33 324.33 7.8-6.22s7.98 4.4 10.41 12.3 6.68 52.8 6.68 52.8l.65 16.73c.84 2.65.62 5.01-1.38 6.9 3 3.11 2.56 5.7-1.55 7.74l-4.26 26.3-13.37-2.78 1.7-51.85-10.93-33.39ZM248.31 118.34h-2.73V43.38A43.38 43.38 0 0 0 202.19 0H43.4A43.38 43.38 0 0 0 0 43.38v411.23A43.38 43.38 0 0 0 43.38 498H202.2a43.38 43.38 0 0 0 43.39-43.39V171.7h2.73Z"/><path fill="#fff" d="M203.95 11.29h-20.73a15.4 15.4 0 0 1-14.26 21.2H77.98a15.4 15.4 0 0 1-14.25-21.2H44.37a32.4 32.4 0 0 0-32.4 32.4V454.3a32.4 32.4 0 0 0 32.4 32.4h159.58a32.4 32.4 0 0 0 32.4-32.4V43.7a32.4 32.4 0 0 0-32.4-32.4Z"/><path fill="#f1f1f1" d="M202.41 165.08a77.92 77.92 0 0 1-4.91 27.32 75.78 75.78 0 0 1-5.43 11.58 78.28 78.28 0 0 1-135.83 0q-1.04-1.8-1.97-3.67a78.26 78.26 0 1 1 148.14-35.23Z"/><circle cx="128.23" cy="163.33" r="14.96" fill="#ff6582"/><path fill="#00b0ff" d="M54.27 200.31c6.59-7.12 15.4-18.43 23.67-10.26 4.14 3.86 10.64 13.4 16.85 7.16l48.52-48.52a9.63 9.63 0 0 1 13.78.25l40.41 43.46a75.8 75.8 0 0 1-5.43 11.58H56.24Z"/><path fill="#00b0ff" d="M160.87 323.99a2.02 2.02 0 0 0 0 4.04h21.22a2.02 2.02 0 1 0 0-4.04Z" data-name="Path 680"/><path fill="#e5e5e5" d="M65.3 294.3a2.02 2.02 0 1 0 0 4.04h117.72a2.02 2.02 0 1 0 0-4.04ZM65.3 309.14a2.02 2.02 0 0 0 0 4.05h117.72a2.02 2.02 0 1 0 0-4.05Z" data-name="Path 680"/><path fill="#00b0ff" d="M160.87 419.26a2.02 2.02 0 0 0 0 4.04h21.22a2.02 2.02 0 1 0 0-4.04Z" data-name="Path 680"/><path fill="#e5e5e5" d="M65.3 389.56a2.02 2.02 0 0 0 0 4.05h117.72a2.02 2.02 0 1 0 0-4.05ZM65.3 404.41a2.02 2.02 0 0 0 0 4.04h117.72a2.02 2.02 0 1 0 0-4.04Z" data-name="Path 680"/><path fill="#e4e4e4" d="m671.08 227.89-16.15-7.3a13.16 13.16 0 0 1-18.58 11.5l-70.89-32.06a13.16 13.16 0 0 1-3.63-21.54l-15.09-6.83a27.7 27.7 0 0 0-36.66 13.83L365.41 505.45a27.7 27.7 0 0 0 13.82 36.66l124.34 56.22a27.7 27.7 0 0 0 36.66-13.83l144.68-319.95a27.7 27.7 0 0 0-13.83-36.66Z"/><path fill="#fff" d="M527.18 380.23a68.13 68.13 0 0 1-39.64-55.4c-.11-1.18-.2-2.4-.25-3.6a67.16 67.16 0 0 1 5.99-30.86 67.92 67.92 0 1 1 110.11 75.82 66.01 66.01 0 0 1-8.43 7.2 68.13 68.13 0 0 1-67.78 6.84Zm55.14-121.94a66 66 0 0 0-87.22 32.9 65.18 65.18 0 0 0-5.8 29.95c.04 1.17.12 2.35.23 3.5a65.94 65.94 0 0 0 104.26 47.14 64.01 64.01 0 0 0 8.18-7 65.95 65.95 0 0 0-19.65-106.5Z"/><path fill="#fff" d="m532 255.59 1.87-.72 47.53 124.06-1.87.72z"/><path fill="#fff" d="m491.67 341.08 124.06-47.51.71 1.86-124.06 47.52zM554.2 477.16 436.85 424.1a3.6 3.6 0 0 1-1.8-4.77l11.04-24.42a3.6 3.6 0 0 1 4.76-1.8l117.36 53.07a3.6 3.6 0 0 1 1.8 4.77l-11.04 24.41a3.6 3.6 0 0 1-4.77 1.8Zm-104.17-82.22a1.6 1.6 0 0 0-2.12.8l-11.04 24.41a1.6 1.6 0 0 0 .8 2.12l117.35 53.07a1.6 1.6 0 0 0 2.13-.8l11.03-24.42a1.6 1.6 0 0 0-.8-2.12ZM525.77 540.03l-117.35-53.06a3.6 3.6 0 0 1-1.8-4.77l11.04-24.41a3.6 3.6 0 0 1 4.76-1.8l117.36 53.06a3.6 3.6 0 0 1 1.8 4.77l-11.04 24.41a3.6 3.6 0 0 1-4.77 1.8ZM421.6 457.81a1.6 1.6 0 0 0-2.12.8l-11.04 24.42a1.6 1.6 0 0 0 .8 2.12L526.6 538.2a1.6 1.6 0 0 0 2.12-.8L539.76 513a1.6 1.6 0 0 0-.8-2.13Z"/><path fill="#2f2e41" d="M480.42 380.95a78 78 0 0 0-15.22-32.93 103.13 103.13 0 0 0-27.81-24.5 123.33 123.33 0 0 0-35.61-14.6c-15.61-3.75-31.73-4.97-47.75-4.82-16.14.16-32.22 1.67-48.26 3.35l-6.12.65c-1.9.2-1.92 3.2 0 3 15.8-1.68 31.63-3.34 47.52-3.85 15.76-.5 31.64.11 47.15 3.12a125.78 125.78 0 0 1 36.94 13.06 104.42 104.42 0 0 1 28.52 22.68 77.12 77.12 0 0 1 16.76 31.23c.38 1.46.7 2.93.98 4.4.36 1.9 3.26 1.1 2.9-.79Z"/><path fill="#2f2e41" d="m310.37 286.63-23.96 25.5a1.51 1.51 0 0 0 .3 2.35l21.62 10.33c1.73.83 3.26-1.76 1.51-2.59l-21.61-10.33.3 2.35 23.96-25.48c1.32-1.41-.8-3.54-2.12-2.13Z"/><path fill="#cacaca" d="M820.57 601.73h-457.3a1.2 1.2 0 1 1 0-2.38h457.3a1.2 1.2 0 1 1 0 2.38Z"/></svg>