<svg xmlns="http://www.w3.org/2000/svg" width="802.61" height="507.22"><path fill="#f2f2f2" d="m706.76 463.87.78-17.58a56.77 56.77 0 0 1 26.47-6.7c-12.71 10.4-11.12 30.44-19.74 44.42a34.14 34.14 0 0 1-25.04 15.78l-10.64 6.51a57.22 57.22 0 0 1 12.06-46.36 55.27 55.27 0 0 1 10.15-9.44 152 152 0 0 0 5.96 13.37ZM168.8 444.6l-25.68-7.77a86.57 86.57 0 0 1 .07-41.65c10.58 22.7 40.8 27.9 58.2 45.92a52.07 52.07 0 0 1 13.9 42.94l5.62 18.18a87.26 87.26 0 0 1-63.98-35.28 84.29 84.29 0 0 1-10.12-18.57c10.9-1.23 22-3.76 22-3.76Z"/><path fill="#e6e6e6" d="M617.77 503.43a1.99 1.99 0 0 1-2 2h-8.04a2 2 0 0 1-2-1.99V260.3c0-5.36-1.8-9.71-4-9.72h-500.5c-2.22.01-4 4.36-4.02 9.72v241.65a2 2 0 0 1-1.8 1.99c-1.63.16-3.25.3-4.86.43l-.12.01-2.64.21c-.47-.83-.9-1.68-1.36-2.53-.14-.29-.22-.6-.22-.93V247.68a56.85 56.85 0 0 1 .91-10.46c1.7-9.29 5.51-15.58 9.85-15.6h509c.64 0 1.26.14 1.84.39.86.38 1.63.92 2.27 1.59.88.91 1.63 1.94 2.23 3.05 2.14 3.77 3.67 9.39 4.21 15.93l.01.18c.14 1.62.21 3.27.2 4.92l.14 21.43.1 12.78.26 40.1.1 14.24.44 167.2Z"/><path fill="#ccc" d="M432.02 147.49h-51a2.72 2.72 0 0 0-2.72 2.72v80.57h56.45v-80.57c0-1.5-1.22-2.72-2.72-2.72Zm-25.33 45.78c-3.32-.02-6-2.7-6.02-6.03v-9.29a6.02 6.02 0 1 1 12.05 0v9.3c-.02 3.31-2.7 6-6.03 6.02Z"/><path fill="#3f3d56" d="M378.13 228.2v7.78c0 .84.68 1.52 1.52 1.52h53.75c.84 0 1.52-.68 1.52-1.52v-7.77h-56.8Z"/><path fill="#e6e6e6" d="M516.48 21.74H298.46a7.08 7.08 0 0 0-7.07 7.07v147.13c0 3.9 3.16 7.06 7.07 7.06h218.02c3.9 0 7.07-3.16 7.07-7.06V28.8c0-3.9-3.17-7.06-7.07-7.07Z"/><path fill="#fff" d="M514.66 26.85H300.28a3.79 3.79 0 0 0-3.78 3.78v143.48c0 2.09 1.7 3.78 3.78 3.78h214.38c2.09 0 3.78-1.7 3.78-3.78V30.63c0-2.09-1.69-3.78-3.78-3.78Z"/><path fill="#ccc" d="M472.9 240.2H345.37a2.35 2.35 0 0 1-2.3-2.82l1.98-9.4a2.36 2.36 0 0 1 2.3-1.87h123.59c1.1 0 2.06.78 2.3 1.87l1.97 9.4a2.35 2.35 0 0 1-2.3 2.83Z"/><rect width="3.93" height="2.36" x="348.24" y="227.81" fill="#e6e6e6" rx=".49" ry=".49"/><rect width="3.93" height="2.36" x="356.1" y="227.81" fill="#e6e6e6" rx=".49" ry=".49"/><rect width="3.93" height="2.36" x="363.95" y="227.81" fill="#e6e6e6" rx=".49" ry=".49"/><rect width="3.93" height="2.36" x="371.81" y="227.81" fill="#e6e6e6" rx=".49" ry=".49"/><rect width="3.93" height="2.36" x="379.67" y="227.81" fill="#e6e6e6" rx=".49" ry=".49"/><rect width="3.93" height="2.36" x="387.52" y="227.81" fill="#e6e6e6" rx=".49" ry=".49"/><rect width="3.93" height="2.36" x="395.38" y="227.81" fill="#e6e6e6" rx=".49" ry=".49"/><rect width="3.93" height="2.36" x="403.24" y="227.81" fill="#e6e6e6" rx=".49" ry=".49"/><rect width="3.93" height="2.36" x="411.1" y="227.81" fill="#e6e6e6" rx=".49" ry=".49"/><rect width="3.93" height="2.36" x="418.95" y="227.81" fill="#e6e6e6" rx=".49" ry=".49"/><rect width="3.93" height="2.36" x="426.81" y="227.81" fill="#e6e6e6" rx=".49" ry=".49"/><rect width="3.93" height="2.36" x="434.67" y="227.81" fill="#e6e6e6" rx=".49" ry=".49"/><rect width="3.93" height="2.36" x="442.52" y="227.81" fill="#e6e6e6" rx=".49" ry=".49"/><rect width="3.93" height="2.36" x="450.38" y="227.81" fill="#e6e6e6" rx=".49" ry=".49"/><rect width="3.93" height="2.36" x="458.24" y="227.81" fill="#e6e6e6" rx=".49" ry=".49"/><rect width="3.93" height="2.36" x="466.09" y="227.81" fill="#e6e6e6" rx=".49" ry=".49"/><rect width="3.93" height="2.36" x="348.15" y="231.73" fill="#e6e6e6" rx=".49" ry=".49"/><rect width="3.93" height="2.36" x="356" y="231.73" fill="#e6e6e6" rx=".49" ry=".49"/><rect width="3.93" height="2.36" x="363.86" y="231.73" fill="#e6e6e6" rx=".49" ry=".49"/><rect width="3.93" height="2.36" x="371.72" y="231.73" fill="#e6e6e6" rx=".49" ry=".49"/><rect width="3.93" height="2.36" x="379.58" y="231.73" fill="#e6e6e6" rx=".49" ry=".49"/><rect width="3.93" height="2.36" x="387.43" y="231.73" fill="#e6e6e6" rx=".49" ry=".49"/><rect width="3.93" height="2.36" x="395.29" y="231.73" fill="#e6e6e6" rx=".49" ry=".49"/><rect width="3.93" height="2.36" x="403.15" y="231.73" fill="#e6e6e6" rx=".49" ry=".49"/><rect width="3.93" height="2.36" x="411" y="231.73" fill="#e6e6e6" rx=".49" ry=".49"/><rect width="3.93" height="2.36" x="418.86" y="231.73" fill="#e6e6e6" rx=".49" ry=".49"/><rect width="3.93" height="2.36" x="426.72" y="231.73" fill="#e6e6e6" rx=".49" ry=".49"/><rect width="3.93" height="2.36" x="434.57" y="231.73" fill="#e6e6e6" rx=".49" ry=".49"/><rect width="3.93" height="2.36" x="442.43" y="231.73" fill="#e6e6e6" rx=".49" ry=".49"/><rect width="3.93" height="2.36" x="450.29" y="231.73" fill="#e6e6e6" rx=".49" ry=".49"/><rect width="3.93" height="2.36" x="458.14" y="231.73" fill="#e6e6e6" rx=".49" ry=".49"/><rect width="3.93" height="2.36" x="466" y="231.73" fill="#e6e6e6" rx=".49" ry=".49"/><rect width="31.43" height="2.36" x="385.86" y="236.45" fill="#e6e6e6" rx=".49" ry=".49"/><path fill="#cacaca" d="M503.89 46.61h-200.6a.8.8 0 0 1 0-1.6h200.6a.8.8 0 0 1 0 1.6Z"/><ellipse cx="316.94" cy="36.17" fill="#ccc" rx="4.68" ry="4.78"/><ellipse cx="333.09" cy="36.17" fill="#ccc" rx="4.68" ry="4.78"/><ellipse cx="349.24" cy="36.17" fill="#ccc" rx="4.68" ry="4.78"/><path fill="#3f3d56" d="m403.38 58.71-.65-1.89 82.86-43.05.65 1.89-82.86 43.05zM653.38 138.45l-.65-1.89 49.86-42.83.65 1.89-49.86 42.83zM557.59 148.42l-82.86-43.05.65-1.89 82.86 43.05-.65 1.89zM600.01 118.47l-48.58-79.75 1.54-1.28 48.57 79.74-1.53 1.29zM637.91 14.55l-47.3-.21v-2l47.3.21v2z"/><path fill="#00b0ff" d="M723.61 26.96h-53a13 13 0 0 1 0-26h53a13 13 0 0 1 0 26ZM789.61 102.96h-53a13 13 0 0 1 0-26h53a13 13 0 0 1 0 26Z"/><path fill="#3f3d56" d="m703.91 156.55-47.3-.21v-2l47.3.21v2z"/><path fill="#00b0ff" d="M789.61 168.96h-53a13 13 0 0 1 0-26h53a13 13 0 0 1 0 26ZM634.61 160h-53a13 13 0 0 1 0-26h53a13 13 0 0 1 0 26ZM562.61 26h-53a13 13 0 0 1 0-26h53a13 13 0 0 1 0 26Z"/><path fill="#3f3d56" d="M309.28 249.18h-60a8 8 0 0 0 0 16h22v62h16v-62h22a8 8 0 0 0 0-16Z"/><path fill="#3f3d56" d="M348.88 361.52H188.4a64.8 64.8 0 0 1-63.92-55.64l-5.68-20.9a469.08 469.08 0 0 0-53.18-122.9c-10.74-17.45-16.28-34.35-3.71-50.61l.31-.41c10.08-13.12 60.24-15.96 76.59-16.51.64-.02 1.3-.03 1.94-.03h99.82a48.85 48.85 0 0 1 44.18 26.95A50.33 50.33 0 0 1 281.9 173c-35.07 52.67-45.8 85.7-34.81 107.09 10.63 20.68 43.22 31.26 102.56 33.28 15.94.54 23.26 12.96 23.31 24.27.05 11.01-6.98 23.17-22.55 23.84-.5.03-1.01.04-1.53.04Z"/><path fill="#3f3d56" d="M215.66 504.02h60a8 8 0 0 0 0-16h-22v-135h-16v135h-22a8 8 0 0 0 0 16Z"/><path fill="#a0616a" d="m269.97 449.59 10.34 5.62 27.36-37.83-15.26-8.29-22.44 40.5z"/><path fill="#2f2e41" d="m274.94 436.11 18.77 5.88-2.99 7.86 12.87 18.67a5.25 5.25 0 0 1-6.2 7.9l-21.84-8.3-.8-9.21-4.43 7.22-8.24-3.13 12.86-26.89Z"/><path fill="#a0616a" d="M296.08 68.08a11.61 11.61 0 0 1-11.86 13.28l-39.85 84.8-12.5-17.43 41.03-80.19a11.68 11.68 0 0 1 23.18-.46Z"/><path fill="#00b0ff" d="M163.83 183.3s-1.06 14.81 15.69 17.72 61.54-25.42 68.9-29.76 21.06-59.06 21.06-59.06l-11.92-20.17c-14.72 18.62-26.28 35.79-26.98 47.97l-66.75 43.3Z"/><path fill="#a0616a" d="m183.18 234.33 3.61 15.54s.04 14.34 2.58 16.98c2.52 2.63 57.95-2.65 57.95-2.65s-5.87-23.1-5.8-40.58l-58.34 10.7Z"/><path fill="#2f2e41" d="m300.28 433.18-20-11c-.38-26.02 15.28-61.24 33.84-98.13-41.52 7.14-80.7 9.43-114.58.79a21.9 21.9 0 0 1-15.2-28.09c4.05-12.37-5.04-20.12 3.32-33.73 22-7.52 42.9-9.64 62-3l11.98 26.47 59.34-7.68a21.88 21.88 0 0 1 24.34 19.3c.08.64.13 1.28.16 1.93-12 56.26-25.46 106.87-45.2 133.14Z"/><path fill="#00b0ff" d="m175.12 135.9 22.86-1.35a4.64 4.64 0 0 1 4.56 2.87l6.47 15.66 26.85 22.2s10.63 13.52 10.65 30.99 3.77 57.91 3.77 57.91-15.51-21.84-25.09-16.03c-1.63.99-2.2 3-3.9 4.03-.86.51-2.83.01-3.68.52-13.2 7.84-26.96 15.5-28.25 14.15-2.52-2.64-5.59-16.1-5.59-16.1l-20.92-76.89a28.48 28.48 0 0 1 4.05-23.96c1.46-2.06 3-3.59 4.41-3.84 3.2-.68 1.5-7.84 3.81-10.16Z"/><path fill="#a0616a" d="m369.59 482.16 9.65-6.71-21.86-41.24-14.24 9.9 26.45 38.05z"/><path fill="#2f2e41" d="M371.05 454.49 355.92 468c-24.04-26.8-42.22-64.37-57.63-107.05-40.37-11.82-70.8-30.89-97.38-53.52-9.02-7.63-15.77-17.43-8.09-26.73.36-.43.74-.85 1.13-1.26 9.08-9.33 32.1-7.55 45.58-16.1l30.13 32.2-1.9 8.63 56.58 19.17a21.85 21.85 0 0 1 13.33 28.01c-.2.62-.45 1.22-.7 1.82l34.08 101.32ZM363.96 479.44l15.45-12.16 4.8 6.9 22.68-.07a5.25 5.25 0 0 1 3.01 9.57L390.72 497l-8.06-4.53 3.46 7.73-7.24 5.03-14.92-25.8Z"/><path fill="#a0616a" d="M208.88 329.67a11.61 11.61 0 0 1-5.2-17.03l-51.75-78.1 21.39-1.63 47.2 76.7a11.68 11.68 0 0 1-11.64 20.06Z"/><path fill="#00b0ff" d="M179.12 156.81s-12.1-8.6-23.29 4.2-10.25 65.79-10.35 74.33c-.04 2.67 3.83 8.45 9.15 15.12 2.39 2.99 5.07 6.16 7.83 9.32 1.6 1.83.22 5.63 1.82 7.4 1.6 1.77 6.17 1.5 7.68 3.14a648.2 648.2 0 0 0 13.04 13.7l23.42.29c.27-17.42-11.66-32.96-26.97-47.98l-2.33-79.52Z"/><path fill="#2f2e41" d="M155.51 81c-2.21 1.6-4.55 3.26-7.25 3.65s-5.87-.9-6.62-3.54c-.92-3.21 1.98-6.14 4.6-8.23l8.27-6.63a20.01 20.01 0 0 1 5.07-3.28 6.76 6.76 0 0 1 5.86.2 6.29 6.29 0 0 1 2.76 5.47 11.69 11.69 0 0 1-2.05 6 21.09 21.09 0 0 1-13.69 9.3"/><path fill="#3f3d56" d="M218.28 253.18h-60a8 8 0 0 0 0 16h22v62h16v-62h22a8 8 0 0 0 0-16Z"/><path fill="#2f2e41" d="M159.19 64.22c.24-6-6.15-10.74-12.14-10.37s-11.14 4.59-14.53 9.54c-3.4 4.94-5.44 10.67-8.11 16.04s-6.24 10.63-11.56 13.41c-5.31 2.78-12.71 2.28-16.38-2.46a13.2 13.2 0 0 0-1.36 11.86c1.5 3.9 4.3 7.15 7.94 9.22a20.8 20.8 0 0 0 4.6 2.02c.66-1.8 1.59-3.47 2.76-4.98a15.45 15.45 0 0 0-.6 5.5c2.48.48 5.03.44 7.5-.11 4.9-1.1 9-4.44 11.06-9.02 2.24-5.32 1.1-11.38 1.58-17.13.47-5.76 3.94-12.33 9.71-12.42 4.4-.07 3.82.3 6.6 3.7"/><path fill="#2f2e41" d="M199.11 95.74c0 14.36-11.64 26-26 26s-28-16.64-28-31 13.64-21 28-21 26 11.64 26 26Z"/><circle cx="180.95" cy="102.6" r="24.81" fill="#a0616a" transform="rotate(-11.56 180.95 102.6)"/><path fill="#2f2e41" d="M212.11 98.74c-7.34 2-14.76 4.1-17.62 0a22.58 22.58 0 0 0-3.1-7.66c-.3 2.62-.9 5.2-1.84 7.66-9.28 2.02-17.95 2.5-25.44 0a14.2 14.2 0 0 0-1.75 6.06 8.55 8.55 0 0 0-1.16-.6 1.92 1.92 0 0 0-1.58-.15c-.36.22-.6.6-.65 1.01-.05.42-.03.84.06 1.25a9.5 9.5 0 0 0 1.25 4.06 3.7 3.7 0 0 0 2.51 1.61c1.04 5.85 9.32 13.76 9.32 13.76-25 1-25-15.96-25-32l3-6h10v-13h28a24 24 0 0 1 24 24Z"/><path fill="#cacaca" d="m439.95 506.91-438.75.3a1.2 1.2 0 1 1-.02-2.37h.02l438.75-.31a1.2 1.2 0 0 1 0 2.38ZM732.95 506.91l-226.75.3a1.2 1.2 0 1 1-.02-2.37h.02l226.75-.31a1.2 1.2 0 0 1 0 2.38Z"/><path fill="#e6e6e6" d="M449.97 148h-85.95a13.54 13.54 0 0 1-13.52-13.52V77.52c0-7.46 6.06-13.51 13.52-13.52h85.95c7.47 0 13.52 6.06 13.53 13.52v56.96c-.01 7.46-6.06 13.51-13.53 13.52Zm-85.95-82a11.54 11.54 0 0 0-11.52 11.52v56.96c0 6.36 5.16 11.51 11.52 11.52h85.95c6.37 0 11.52-5.16 11.53-11.52V77.52c0-6.36-5.16-11.51-11.53-11.52h-85.95Z"/><path fill="#e6e6e6" d="M366.5 82h22.99v2H366.5zM366.5 90h51v2h-51zM366.5 97h51v2h-51zM366.5 104h65v2h-65zM366.5 111h34v2h-34zM366.5 118h62v2h-62zM366.5 125h11v2h-11z"/><path fill="#ccc" d="M365.75 38.96c-.1 0-.2-.04-.27-.11l-2.13-2.19a.37.37 0 0 1 0-.52l2.13-2.18a.37.37 0 0 1 .54.52l-1.88 1.92 1.88 1.92a.37.37 0 0 1-.27.64ZM369.33 38.96a.37.37 0 0 1-.27-.64l1.88-1.92-1.87-1.92a.37.37 0 1 1 .53-.52l2.14 2.18c.14.15.14.38 0 .52l-2.14 2.19a.37.37 0 0 1-.27.1ZM480.96 33.54h-3.97a.82.82 0 0 0-.82.82v3.98c0 .45.37.81.82.81h3.97c.45 0 .82-.36.82-.81v-3.98a.82.82 0 0 0-.82-.82ZM471.24 33.54h-3.97a.82.82 0 0 0-.82.82v3.98c0 .45.37.81.82.81h3.97c.45 0 .82-.36.82-.81v-3.98a.82.82 0 0 0-.82-.82ZM490.12 33.73h-3.97a.82.82 0 0 0-.82.82v3.97c0 .45.37.82.82.82h3.97c.45 0 .82-.37.82-.82v-3.97a.82.82 0 0 0-.82-.82ZM430.32 35.24H398.6a1 1 0 1 0 0 2h31.7a1 1 0 0 0 0-2Z"/></svg>